<?xml version="1.0" encoding="UTF-8"?>
<svg id="Layer_5" data-name="Layer 5" xmlns="http://www.w3.org/2000/svg" viewBox="0 0 16 16">
  <defs>
    <style>
      .cls-1 {
        fill: none;
        stroke: #004e95;
        stroke-linecap: round;
        stroke-miterlimit: 10;
        stroke-width: .850000023841858px;
      }

      .cls-2 {
        fill: #004e95;
        stroke-width: 0px;
      }
    </style>
  </defs>
  <path class="cls-1" d="m12.38466000355038,12.312752943300438v.33903483535687c0,.552284749830505-.447715250169495,1-1,1h-6.769320007075294c-.552284749830505,0-1-.447715250169495-1-1V3.348212221342692c0-.552284749830505.447715250169495-1,1-1h6.769320007075294c.552284749830505,0,1,.447715250169495,1,1v2.458671478489123"/>
  <line class="cls-1" x1="5.512603428929651" y1="4.32453374562283" x2="9.606712826265721" y2="4.32453374562283"/>
  <line class="cls-1" x1="5.512603428929651" y1="5.853942428537266" x2="9.606712826265721" y2="5.853942428537266"/>
  <g>
    <path class="cls-2" d="m5.017578125,7.4990234375h1.23046875c.78515625,0,1.4228515625.28515625,1.4228515625,1.1533203125,0,.8408203125-.642578125,1.2138671875-1.400390625,1.2138671875h-.4453125v1.2138671875h-.8076171875v-3.5810546875Zm1.203125,1.724609375c.4453125,0,.6591796875-.197265625.6591796875-.5712890625,0-.373046875-.2412109375-.5107421875-.6806640625-.5107421875h-.3740234375v1.08203125h.3955078125Z"/>
    <path class="cls-2" d="m8.158203125,7.4990234375h1.0107421875c1.0927734375,0,1.7958984375.5439453125,1.7958984375,1.7744140625s-.703125,1.806640625-1.751953125,1.806640625h-1.0546875v-3.5810546875Zm.9609375,2.927734375c.6103515625,0,1.0166015625-.296875,1.0166015625-1.1533203125,0-.857421875-.40625-1.12109375-1.0166015625-1.12109375h-.1533203125v2.2744140625h.1533203125Z"/>
    <path class="cls-2" d="m11.5126953125,7.4990234375h2.2578125v.6806640625h-1.4501953125v.830078125h1.2412109375v.6806640625h-1.2412109375v1.3896484375h-.8076171875v-3.5810546875Z"/>
  </g>
</svg>