<?xml version="1.0" encoding="UTF-8"?>
<svg id="Layer_5" data-name="Layer 5" xmlns="http://www.w3.org/2000/svg" viewBox="0 0 16 16">
  <defs>
    <style>
      .cls-1 {
        fill: none;
        stroke: #004e95;
        stroke-linecap: round;
        stroke-miterlimit: 10;
        stroke-width: .850000023841858px;
      }

      .cls-2 {
        fill: #004e95;
        stroke-width: 0px;
      }
    </style>
  </defs>
  <path class="cls-1" d="m12.38466000355038,12.312752943300438v.33903483535687c0,.552284749830505-.447715250169495,1-1,1h-6.769320007075294c-.552284749830505,0-1-.447715250169495-1-1V3.348212221342692c0-.552284749830505.447715250169495-1,1-1h6.769320007075294c.552284749830505,0,1,.447715250169495,1,1v2.458671478489123"/>
  <line class="cls-1" x1="5.512603428929651" y1="4.32453374562283" x2="9.606712826265721" y2="4.32453374562283"/>
  <line class="cls-1" x1="5.512603428929651" y1="5.853942428537266" x2="9.606712826265721" y2="5.853942428537266"/>
  <g>
    <path class="cls-2" d="m6.1845703125,7.5107421875c.4599609375,0,.7958984375.0986328125,1.0078125.296875.2119140625.197265625.3173828125.4697265625.3173828125.81640625,0,.15625-.0234375.3056640625-.0712890625.4482421875-.046875.142578125-.1240234375.2685546875-.23046875.3798828125-.1064453125.1103515625-.248046875.1982421875-.42578125.26171875-.177734375.064453125-.396484375.0966796875-.65625.0966796875h-.3251953125v1.26953125h-.7568359375v-3.5693359375h1.140625Zm-.0390625.6201171875h-.3447265625v1.0595703125h.2490234375c.1416015625,0,.2646484375-.0185546875.369140625-.0556640625.103515625-.0380859375.1845703125-.0966796875.2412109375-.17578125.056640625-.080078125.0849609375-.1826171875.0849609375-.3076171875,0-.17578125-.048828125-.306640625-.146484375-.392578125-.09765625-.0849609375-.248046875-.1279296875-.453125-.1279296875Z"/>
    <path class="cls-2" d="m11.01953125,9.26171875c0,.4013671875-.076171875.7373046875-.23046875,1.0068359375-.1533203125.26953125-.3759765625.4716796875-.66796875.607421875-.291015625.13671875-.6416015625.2041015625-1.0517578125.2041015625h-1.0107421875v-3.5693359375h1.12109375c.3740234375,0,.6982421875.06640625.9736328125.19921875s.48828125.3291015625.6396484375.587890625c.1513671875.259765625.2265625.5810546875.2265625.9638671875Zm-.78515625.01953125c0-.263671875-.0390625-.48046875-.1162109375-.6513671875-.0771484375-.169921875-.19140625-.294921875-.341796875-.376953125-.150390625-.0810546875-.3369140625-.1220703125-.5576171875-.1220703125h-.4033203125v2.32421875h.3251953125c.369140625,0,.6435546875-.0986328125.8232421875-.294921875.1796875-.197265625.2705078125-.490234375.2705078125-.87890625Z"/>
    <path class="cls-2" d="m12.37890625,11.080078125h-.744140625v-3.5693359375h2.0458984375v.6201171875h-1.3017578125v.9208984375h1.2109375v.6171875h-1.2109375v1.4111328125Z"/>
  </g>
</svg>