<?xml version="1.0" encoding="UTF-8"?>
<svg id="Layer_5" data-name="Layer 5" xmlns="http://www.w3.org/2000/svg" viewBox="0 0 16 16">
  <defs>
    <style>
      .cls-1 {
        fill: none;
        stroke-linecap: round;
        stroke-width: .850000023841858px;
      }

      .cls-1, .cls-2 {
        stroke: #004e95;
        stroke-miterlimit: 10;
      }

      .cls-2 {
        fill: #004e95;
        stroke-width: .100000001490116px;
      }
    </style>
  </defs>
  <circle class="cls-1" cx="8.000000000000909" cy="8" r="5.800000000000182"/>
  <path class="cls-2" d="m9.103027343749091,6.109375c0-.556640625-.4013671875-.9619140625-1.107421875-.9619140625-.5341796875,0-.97021484375.234375-1.35205078125.5966796875l-.63134765625-.5791015625c.50341796875-.5361328125,1.19970703125-.91796875,2.052734375-.91796875,1.2314453125,0,2.10009765625.6484375,2.10009765625,1.736328125,0,1.484375-1.93994140625,1.759765625-1.767578125,3.1396484375h-.9609375c-.255859375-1.5380859375,1.66650390625-1.9697265625,1.66650390625-3.013671875Zm-1.876788388255591,4.847567233549853c0-.482169731496469.343146925638393-.785415851827565.763995419505591-.785415851827565s.763995419505591.303246120331096.763995419505591.785415851827565-.343146925638393.796336072227859-.763995419505591.796336072227859-.763995419505591-.31416634073139-.763995419505591-.796336072227859Z"/>
</svg>