<?xml version="1.0" encoding="UTF-8"?>
<svg id="Layer_5" data-name="Layer 5" xmlns="http://www.w3.org/2000/svg" viewBox="0 0 16 16">
  <defs>
    <style>
      .cls-1 {
        fill: none;
        stroke-linecap: round;
        stroke-width: .850000023841858px;
      }

      .cls-1, .cls-2 {
        stroke: #004e95;
        stroke-miterlimit: 10;
      }

      .cls-2 {
        fill: #004e95;
        stroke-width: .100000001490116px;
      }
    </style>
  </defs>
  <circle class="cls-1" cx="8.000000000000909" cy="8" r="5.800000000000182"/>
  <path class="cls-2" d="m7.539550781249091,9.5400390625v-.29296875c0-.228515625.0263671875-.427734375.07861328125-.59765625.052734375-.1708984375.14111328125-.330078125.2646484375-.48046875s.29052734375-.306640625.5009765625-.470703125c.21630859375-.169921875.388671875-.3173828125.51708984375-.44140625.12841796875-.123046875.22119140625-.248046875.2783203125-.373046875s.0859375-.271484375.0859375-.4384765625c0-.2626953125-.0888671875-.462890625-.2666015625-.6005859375-.17822265625-.1376953125-.427734375-.2060546875-.74951171875-.2060546875-.2841796875,0-.5517578125.0400390625-.80224609375.1201171875-.25048828125.0810546875-.498046875.181640625-.7421875.3017578125l-.38525390625-.81640625c.28173828125-.154296875.5869140625-.279296875.91650390625-.373046875.3291015625-.0947265625.69189453125-.1416015625,1.08740234375-.1416015625.630859375,0,1.11865234375.15234375,1.4638671875.458984375.3447265625.306640625.51708984375.7099609375.51708984375,1.2109375,0,.275390625-.04345703125.5107421875-.1298828125.70703125s-.21435546875.3779296875-.3828125.54296875-.37158203125.3388671875-.60986328125.521484375c-.19482421875.1552734375-.34423828125.2890625-.44775390625.4013671875-.103515625.11328125-.1748046875.2265625-.21337890625.3408203125s-.0576171875.251953125-.0576171875.4130859375v.2138671875h-.92333984375Zm-.17626953125,1.4931640625c0-.25390625.0654296875-.431640625.197265625-.5361328125.13134765625-.103515625.29296875-.1552734375.484375-.1552734375.185546875,0,.34521484375.0517578125.47802734375.1552734375.1328125.1044921875.19970703125.2822265625.19970703125.5361328125,0,.2470703125-.06689453125.42578125-.19970703125.5361328125-.1328125.109375-.29248046875.1640625-.47802734375.1640625-.19140625,0-.35302734375-.0546875-.484375-.1640625-.1318359375-.1103515625-.197265625-.2890625-.197265625-.5361328125Z"/>
</svg>