<?xml version="1.0" encoding="UTF-8"?>
<svg id="Layer_5" data-name="Layer 5" xmlns="http://www.w3.org/2000/svg" viewBox="0 0 16 16">
  <defs>
    <style>
      .cls-1 {
        fill: #004e95;
        stroke-width: 0px;
      }
    </style>
  </defs>
  <path class="cls-1" d="m7.999999999999091,1.8671875c-3.3818359375,0-6.13330078125,2.7509765625-6.13330078125,6.1328125s2.75146484375,6.1328125,6.13330078125,6.1328125,6.13330078125-2.7509765625,6.13330078125-6.1328125S11.381835937499091,1.8671875,7.999999999999091,1.8671875Zm-.009765625,9.88604736328125c-.42083740234375,0-.76397705078125-.31414794921875-.76397705078125-.79632568359375s.3431396484375-.785400390625.76397705078125-.785400390625.7640380859375.30322265625.7640380859375.785400390625-.34320068359375.79632568359375-.7640380859375.79632568359375Zm.4072265625-2.63018798828125h-.9609375c-.255859375-1.5380859375,1.66650390625-1.9697265625,1.66650390625-3.013671875,0-.556640625-.4013671875-.9619140625-1.107421875-.9619140625-.5341796875,0-.97021484375.234375-1.35205078125.5966796875l-.63134765625-.5791015625c.50341796875-.5361328125,1.19970703125-.91796875,2.052734375-.91796875,1.2314453125,0,2.10009765625.6484375,2.10009765625,1.736328125,0,1.484375-1.93994140625,1.759765625-1.767578125,3.1396484375Z"/>
</svg>