<?xml version="1.0" encoding="UTF-8"?>
<svg id="Layer_5" data-name="Layer 5" xmlns="http://www.w3.org/2000/svg" viewBox="0 0 16 16">
  <defs>
    <style>
      .cls-1 {
        fill: none;
        stroke: #004e95;
        stroke-linecap: round;
        stroke-miterlimit: 10;
        stroke-width: .666700005531311px;
      }
    </style>
  </defs>
  <path class="cls-1" d="m13.799999999998363,7.054085091844172v5.680998174146225c0,.157121382344485-.127752899663392.284874282009696-.284874282006058.284874282009696H2.484690728989335c-.156937829326125,0-.284690728989517-.127752899665211-.284690728989517-.284874282009696v-5.680998174146225"/>
  <g>
    <path class="cls-1" d="m11.545900000000074,4.207760766506908h1.969221993849715c.157121330630616,0,.284874188246249.127752857615633.284874188246249.284874188246249v2.98497869543462H2.199999999999818v-2.98497869543462c0-.157121330630616.127752857615633-.284874188246249.284690635289735-.284874188246249h1.869409364710009"/>
    <line class="cls-1" x1="9.499999999999091" y1="4.209999999999127" x2="6.400000000000546" y2="4.209999999999127"/>
  </g>
  <path class="cls-1" d="m5.376284787939767,5.977609329715051c-.563581847802197,0-1.022184787940205-.458599224868522-1.022184787940205-1.022336844323945v-1.305833783890193c0-.563737619457243.458591752329085-1.022329371786327,1.022173600131282-1.022329371786327.563893391110469,0,1.022485143439553.458591752329085,1.022485143439553,1.022329371786327v1.305833783890193c0,.563737619455424-.458580564520162,1.022336844323945-1.02247395563063,1.022336844323945Z"/>
  <path class="cls-1" d="m10.523375879863124,5.977606805898176c-.563583104747522,0-1.022175879863426-.458592775117722-1.022175879863426-1.022331651867717v-1.305836696266852c0-.563738876749994.458592775115903-1.022331651865898,1.022175879863426-1.022331651865898.563894648752466,0,1.02252412013695.458592775115903,1.02252412013695,1.022331651865898l-.00003669626858,1.305836696266852c0,.563738876749994-.458592775115903,1.022331651867717-1.02248742386837,1.022331651867717Z"/>
</svg>