<?xml version="1.0" encoding="UTF-8"?>
<svg id="Layer_5" data-name="Layer 5" xmlns="http://www.w3.org/2000/svg" viewBox="0 0 16 16">
  <defs>
    <style>
      .cls-1 {
        fill: none;
        stroke: #004e95;
        stroke-linecap: round;
        stroke-miterlimit: 10;
        stroke-width: .666700005531311px;
      }
    </style>
  </defs>
  <path class="cls-1" d="m8.00000608362825,13.992936438229663c-.097721395330154,0-.190897211574338-.041280930283392-.256560012116097-.113656587262085l-3.34635038212582-3.688671840587631c-.851272325464379-.9383569516649-1.305756090481736-2.152414396516178-1.279737355482212-3.418532124820558.026098582060513-1.269950387206336.533583685170015-2.46101758199984,1.428977214920451-3.353793268835943.432548636825231-.431288193944056.933161189368548-.771733246479926,1.487938565740478-1.011890391027919.58537020726726-.253394646502784,1.215089753281063-.387492081255914,1.871677835155424-.398562305857922.062714162664633-.001060825232344.125434028686868-.001055121871104.188091157735471,0,.656605191958079.011070224602008,1.286330441333121.145167659355138,1.871694945235504.398562305857922.554777376375569.240157144547993,1.055395632276486.580602197083863,1.487938565740478,1.011890391027919.895393529754074.892769983474864,1.402884336221177,2.083837178266549,1.428982918285328,3.353793268835943.026018734995887,1.26611772830438-.428465030017833,2.480175173155658-1.279737355482212,3.418532124820558l-3.346356085490697,3.688671840587631c-.065657097173244.072375656978693-.158838616782305.113656587262085-.256560012116097.113656587262085Z"/>
  <path class="cls-1" d="m8.00000608362825,9.022942688352487c-.608347708843212,0-1.180291427339398-.23690711065683-1.61046011839062-.667075801709871-.430173996210215-.430168691053041-.667081106868864-1.002112409545589-.667081106868864-1.610465423547794,0-.608347708848669.236907110658649-1.180291427341217.667081106868864-1.610460118394258.430168691051222-.43016869105486,1.002112409547408-.66707580171169,1.61046011839062-.66707580171169.608353014005843,0,1.180296732498391.23690711065683,1.610465423553251.66707580171169.430168691047584.430168691053041.667075801709871,1.002112409545589.667075801709871,1.610460118394258,0,.608353014002205-.236907110662287,1.180296732494753-.667075801709871,1.610465423547794-.43016869105486.430168691053041-1.002112409547408.667075801709871-1.610465423553251.667075801709871Z"/>
</svg>