<?xml version="1.0" encoding="UTF-8"?>
<svg id="Layer_5" data-name="Layer 5" xmlns="http://www.w3.org/2000/svg" viewBox="0 0 16 16">
  <defs>
    <style>
      .cls-1 {
        fill: #004e95;
        stroke-width: 0px;
      }
    </style>
  </defs>
  <path class="cls-1" d="m11.69000244140625,3.17999267578125c-.46002197265625-.46002197265625-1-.82000732421875-1.59002685546875-1.08001708984375-.6300048828125-.27001953125-1.29998779296875-.40997314453125-2-.42999267578125h-.199951171875c-.70001220703125.02001953125-1.3699951171875.15997314453125-2,.42999267578125-.59002685546875.260009765625-1.1300048828125.6199951171875-1.59002685546875,1.08001708984375-.96002197265625.96002197265625-1.5,2.22998046875-1.52996826171875,3.5899658203125-.02001953125,1.35003662109375.4599609375,2.6400146484375,1.3699951171875,3.6400146484375l3.3499755859375,3.69000244140625c.1199951171875.1500244140625.30999755859375.22998046875.5.22998046875s.3800048828125-.0799560546875.5-.22998046875l3.3499755859375-3.69000244140625c.9100341796875-1,1.3900146484375-2.28997802734375,1.3699951171875-3.6400146484375-.02996826171875-1.3599853515625-.5699462890625-2.62994384765625-1.52996826171875-3.5899658203125Zm-2.16998291015625,5.0899658203125c-.80999755859375.80999755859375-2.23004150390625.80999755859375-3.0400390625,0-.40997314453125-.40997314453125-.63995361328125-.949951171875-.63995361328125-1.51995849609375,0-.58001708984375.22998046875-1.1199951171875.63995361328125-1.530029296875.4000244140625-.40997314453125.94000244140625-.6300048828125,1.52001953125-.6300048828125s1.1199951171875.22003173828125,1.52001953125.6300048828125c.40997314453125.4100341796875.63995361328125.95001220703125.63995361328125,1.530029296875,0,.57000732421875-.22998046875,1.1099853515625-.63995361328125,1.51995849609375Z"/>
</svg>