<?xml version="1.0" encoding="UTF-8"?>
<svg id="Layer_5" data-name="Layer 5" xmlns="http://www.w3.org/2000/svg" viewBox="0 0 16 16">
  <defs>
    <style>
      .cls-1 {
        fill: #004e95;
      }

      .cls-1, .cls-2 {
        stroke: #004e95;
        stroke-linecap: round;
        stroke-miterlimit: 10;
        stroke-width: .666700005531311px;
      }

      .cls-2 {
        fill: #fff;
      }
    </style>
  </defs>
  <path class="cls-1" d="m7.999997148323018,13.992963561766373c-.097721616468334,0-.190897643566132-.041281023699412-.256560592701135-.113656844463549l-3.346357954760606-3.688680187879072c-.851274251854193-.938359075124026-1.305759045346349-2.152419267331425-1.279740251466137-3.418539860800593.026098641119461-1.269953261045885.533584892644285-2.461023151168774,1.428980448628863-3.35380085831639.432549615663447-.431289169928277.933163301069726-.771734992875281,1.487941932875401-1.011892680888195.585371531931742-.253395219922822,1.215092502974585-.387492958132498,1.871682070675888-.398563207785628.062714304582187-.001060827631591.125434312536527-.001055124259437.188091583375353,0,.656606677828677.01107024965313,1.286333352240035.145167987862806,1.871699180795986.398563207785628.554778631809313.240157688012914,1.055398020587745.580603510959918,1.487941932879039,1.011892680888195.895395555984578.892772003773644,1.402887510881555,2.083841893894714,1.428986152004654,3.35380085831639.026018793876574,1.266120593469168-.428465999615582,2.480180785676566-1.279740251466137,3.418539860800593l-3.346363658140035,3.688680187879072c-.065657245755574.072375820764137-.158838976229163.113656844463549-.256560592701135.113656844463549Z"/>
  <path class="cls-2" d="m7.999997148323018,9.234722597560904c-.664912853757414,0-1.290036815804342-.258935113477492-1.760203281141003-.72910157881779-.470172263783752-.470166465342118-.729107377261244-1.095290427385407-.729107377261244-1.760209079582637,0-.66491285376469.258935113477492-1.290036815806161.729107377261244-1.760203281148279.470166465336661-.470166465342118,1.095290427383588-.729101578819609,1.760203281141003-.729101578819609.664918652204506,0,1.290042614247795.258935113477492,1.760209079588094.729101578819609.470166465336661.470166465342118.72910157881779,1.095290427383588.72910157881779,1.760203281148279,0,.66491865219723-.25893511348113,1.290042614240519-.72910157881779,1.760209079582637-.470166465340299.470166465340299-1.095290427383588.72910157881779-1.760209079588094.72910157881779Z"/>
</svg>